<?xml version="1.0" standalone="no"?>
<!DOCTYPE svg PUBLIC "-//W3C//DTD SVG 20010904//EN"
 "http://www.w3.org/TR/2001/REC-SVG-20010904/DTD/svg10.dtd">
<svg version="1.0" xmlns="http://www.w3.org/2000/svg"
 width="452.000000pt" height="452.000000pt" viewBox="0 0 452.000000 452.000000"
 preserveAspectRatio="xMidYMid meet">
<metadata>
Created by potrace 1.14, written by Peter Selinger 2001-2017
</metadata>
<g transform="translate(0.000000,452.000000) scale(0.100000,-0.100000)"
fill="#000000" stroke="none">
<path d="M163 4507 c-36 -6 -63 -18 -91 -42 -79 -68 -72 132 -72 -2211 0
-2035 1 -2096 19 -2132 10 -21 31 -49 46 -64 58 -58 -72 -55 2205 -54 2017 1
2096 2 2129 20 47 25 65 44 90 93 l21 42 0 2098 c0 2025 -1 2099 -19 2139 -22
49 -54 81 -101 102 -31 13 -264 15 -2106 16 -1138 1 -2093 -3 -2121 -7z"/>
</g>
</svg>
