<?xml version="1.0" standalone="no"?>
<!DOCTYPE svg PUBLIC "-//W3C//DTD SVG 20010904//EN"
 "http://www.w3.org/TR/2001/REC-SVG-20010904/DTD/svg10.dtd">
<svg version="1.0" xmlns="http://www.w3.org/2000/svg"
 width="851.000000pt" height="851.000000pt" viewBox="0 0 851.000000 851.000000"
 preserveAspectRatio="xMidYMid meet">
<metadata>
Created by potrace 1.14, written by Peter Selinger 2001-2017
</metadata>
<g transform="translate(0.000000,851.000000) scale(0.100000,-0.100000)"
fill="#000000" stroke="none">
<path d="M5588 8285 c-2 -2 -52 -6 -113 -9 -60 -3 -121 -8 -135 -10 -14 -3
-45 -7 -70 -10 -67 -9 -265 -59 -435 -111 -82 -25 -157 -47 -165 -49 -53 -15
-306 -106 -417 -151 -227 -93 -477 -214 -683 -332 -146 -84 -285 -168 -288
-175 -2 -4 -8 -8 -13 -8 -18 0 -292 -186 -455 -308 -184 -139 -395 -313 -539
-447 -18 -16 -65 -61 -106 -99 -41 -38 -162 -155 -270 -260 -342 -334 -404
-385 -452 -367 -31 12 -77 67 -78 94 -4 87 33 200 94 289 56 83 218 287 272
344 5 6 44 49 85 95 66 74 144 160 205 224 19 20 173 189 223 244 13 14 43 47
68 73 24 25 41 48 37 51 -18 9 -202 7 -253 -3 -30 -6 -65 -13 -77 -16 -91 -18
-348 -136 -465 -214 -81 -53 -194 -159 -263 -245 -22 -27 -42 -52 -45 -55 -22
-19 -100 -152 -140 -235 -94 -197 -160 -440 -184 -675 -7 -64 -8 -277 -1 -335
2 -22 7 -69 10 -104 4 -36 8 -74 10 -85 2 -12 6 -37 9 -56 38 -250 122 -555
228 -828 155 -397 562 -1056 911 -1475 188 -224 546 -598 696 -725 30 -26 66
-57 80 -70 140 -129 568 -318 851 -377 71 -15 268 -43 300 -43 8 0 51 -2 95
-5 44 -4 130 -9 190 -13 61 -3 111 -7 113 -9 4 -3 -217 -134 -318 -188 -104
-56 -217 -101 -290 -116 -30 -6 -66 -14 -80 -17 -14 -3 -74 -7 -135 -9 -113
-4 -163 1 -303 29 -79 16 -256 93 -350 153 -296 188 -732 592 -1097 1018 -33
39 -62 72 -65 75 -19 17 -231 284 -302 380 -247 336 -475 721 -626 1058 -75
168 -196 496 -217 592 -2 8 -15 62 -28 120 -25 103 -61 287 -73 365 -3 22 -7
51 -10 65 -20 103 -42 358 -42 470 2 295 108 742 238 1001 125 248 363 515
602 677 225 152 582 281 878 317 30 4 66 9 80 10 143 18 388 23 596 11 168 -9
273 29 534 199 77 49 138 90 137 91 -1 1 -20 5 -42 8 -22 4 -47 8 -55 11 -8 2
-33 6 -55 10 -22 3 -76 12 -120 20 -44 8 -93 16 -110 19 -91 15 -175 28 -210
32 -22 3 -49 7 -60 9 -110 23 -559 24 -680 1 -11 -2 -47 -7 -80 -11 -208 -24
-534 -132 -779 -258 -378 -193 -754 -551 -943 -895 -107 -196 -213 -480 -248
-667 -46 -247 -59 -382 -59 -610 0 -125 10 -313 18 -365 3 -14 7 -47 10 -75 3
-27 10 -77 16 -110 5 -33 13 -80 16 -105 3 -25 8 -48 10 -51 2 -4 6 -24 10
-45 8 -56 77 -324 109 -424 157 -500 397 -983 772 -1554 316 -481 583 -784
1142 -1296 151 -139 333 -316 373 -364 45 -54 48 -60 35 -80 -22 -33 -87 -66
-132 -66 -67 1 -205 43 -305 93 -88 45 -291 194 -386 282 -12 11 -50 46 -85
77 -75 66 -105 94 -349 328 -320 307 -309 298 -311 263 -10 -148 -7 -202 21
-310 70 -270 211 -521 401 -714 87 -89 162 -141 296 -208 307 -153 558 -209
924 -205 186 2 294 10 499 40 127 18 414 92 530 135 289 110 513 213 725 334
66 38 129 73 140 80 161 91 562 369 695 481 130 110 198 170 274 243 454 440
742 815 873 1137 90 219 141 444 158 684 14 220 17 270 19 318 1 62 -3 66 82
-68 84 -132 139 -244 183 -377 148 -444 83 -797 -218 -1178 -30 -38 -60 -75
-66 -81 -5 -6 -35 -40 -65 -75 -30 -35 -80 -90 -110 -123 -30 -32 -68 -73 -83
-90 -101 -109 -410 -415 -527 -522 -135 -122 -167 -149 -255 -219 -388 -308
-997 -672 -1431 -854 -270 -113 -703 -237 -930 -266 -49 -6 -124 -17 -146 -21
-90 -16 -444 -22 -593 -11 -235 19 -494 85 -676 173 -59 29 -249 151 -304 196
-255 207 -426 370 -521 498 -113 153 -247 480 -278 680 -3 19 -8 46 -10 60
-11 65 -26 171 -32 225 -10 97 -14 457 -6 500 12 60 -12 165 -56 253 -44 88
-242 395 -250 388 -4 -5 -18 -78 -38 -195 -3 -18 -8 -43 -10 -55 -16 -85 -30
-172 -39 -245 -4 -30 -9 -63 -11 -74 -6 -32 -17 -224 -17 -297 0 -83 13 -341
17 -349 2 -3 7 -33 11 -66 17 -156 51 -285 125 -481 48 -126 138 -326 169
-373 8 -13 16 -30 17 -37 1 -6 11 -25 21 -41 11 -15 51 -75 89 -133 219 -333
520 -593 896 -773 280 -135 577 -214 903 -242 83 -7 425 -8 475 -1 19 3 62 8
95 11 76 8 116 14 185 25 30 5 73 12 95 15 22 3 46 8 54 11 8 2 30 7 50 10 28
5 176 39 291 68 126 32 363 111 527 177 157 62 180 73 368 164 131 64 202 102
415 223 102 58 344 211 475 300 311 212 516 378 784 637 120 116 124 120 365
365 269 273 386 375 459 401 34 12 39 11 59 -8 76 -77 -48 -480 -206 -665 -34
-40 -119 -129 -188 -198 -122 -123 -168 -167 -482 -465 l-158 -149 52 -17 c55
-18 112 -17 190 1 25 6 50 11 55 12 6 0 62 18 125 40 293 102 481 230 700 478
173 196 261 356 319 582 45 176 55 271 56 533 0 231 -9 340 -40 515 -56 305
-187 696 -313 930 -165 309 -448 757 -646 1023 -415 558 -892 1009 -1296 1225
-209 112 -503 214 -685 238 -27 3 -52 8 -56 9 -3 2 -45 7 -95 10 -49 3 -100 8
-114 10 -14 2 -63 7 -110 10 -47 4 -86 8 -88 9 -5 5 162 113 218 141 76 39
164 70 261 95 116 30 163 35 319 34 250 -1 430 -55 618 -185 307 -212 1040
-901 1258 -1184 419 -542 726 -1065 914 -1559 75 -197 144 -424 170 -551 5
-27 12 -61 15 -75 10 -40 52 -290 59 -345 37 -305 23 -649 -40 -950 -43 -207
-148 -458 -257 -620 -23 -33 -46 -65 -51 -71 -6 -6 -24 -29 -41 -50 -167 -216
-383 -384 -692 -538 -198 -99 -369 -147 -608 -172 -33 -3 -73 -7 -90 -9 -144
-17 -292 -20 -595 -13 -118 3 -160 -7 -295 -74 -59 -29 -319 -180 -354 -205
-10 -7 11 -12 144 -38 413 -78 614 -102 845 -99 148 2 282 9 340 19 14 2 45 7
70 10 25 3 56 7 70 10 13 2 42 7 64 11 123 18 445 136 638 232 93 47 241 137
303 185 6 4 28 21 50 38 219 166 432 406 569 640 53 89 164 327 199 424 36
100 81 259 91 325 3 19 8 49 11 65 12 72 15 94 22 170 16 159 8 672 -12 785
-2 14 -6 43 -9 65 -22 197 -87 470 -165 695 -74 213 -89 254 -145 386 -166
395 -345 726 -605 1119 -123 186 -360 504 -421 565 -3 3 -20 23 -39 45 -117
138 -344 371 -551 565 -151 141 -382 369 -421 416 -39 45 -79 118 -79 141 0
42 35 58 129 57 148 -2 290 -57 492 -192 194 -130 348 -271 704 -644 123 -129
150 -151 197 -162 l26 -6 -3 108 c-10 265 -100 492 -282 710 -169 202 -419
400 -601 478 -163 69 -381 124 -557 141 -126 11 -519 3 -544 -11 -3 -2 -29 -6
-56 -10 -191 -22 -529 -110 -762 -197 -175 -66 -401 -181 -713 -364 -585 -342
-948 -613 -1310 -975 -187 -186 -212 -213 -285 -305 -22 -27 -46 -57 -54 -65
-59 -61 -225 -351 -281 -490 -12 -30 -28 -68 -35 -85 -38 -89 -106 -353 -120
-470 -4 -27 -8 -66 -11 -85 -2 -19 -6 -102 -9 -184 -2 -82 -6 -150 -8 -152 -5
-5 -114 177 -149 248 -44 92 -86 223 -102 323 -14 90 -15 323 -2 400 52 295
139 463 405 780 77 91 392 411 531 540 354 327 541 480 780 639 130 86 378
236 391 236 5 0 9 5 9 10 0 6 4 10 8 10 5 0 62 30 128 66 351 194 722 347
1090 448 113 32 369 83 449 91 33 3 67 8 75 10 63 17 410 24 560 12 277 -22
588 -105 812 -218 255 -128 540 -385 715 -644 93 -138 210 -386 250 -530 37
-130 45 -174 68 -355 18 -140 26 -433 16 -610 -4 -76 8 -129 55 -225 28 -59
143 -246 171 -280 5 -5 23 -34 42 -63 18 -29 36 -51 38 -48 3 3 21 98 38 206
2 14 11 68 19 120 26 155 31 224 31 455 0 194 -7 349 -20 426 -2 13 -6 47 -10
74 -18 157 -76 403 -129 549 -63 174 -168 382 -265 524 -20 30 -40 61 -46 70
-5 9 -12 19 -15 22 -3 3 -33 39 -67 80 -176 218 -461 453 -684 565 -202 102
-567 213 -789 240 -25 3 -56 7 -70 10 -68 12 -165 17 -372 20 -125 1 -229 1
-230 0z m-1111 -2149 c12 -2 48 -7 80 -11 151 -15 302 -67 503 -173 279 -147
474 -292 641 -478 161 -179 258 -319 333 -479 56 -119 119 -306 131 -390 2
-11 6 -33 9 -50 24 -137 25 -600 1 -723 -2 -11 -6 -48 -10 -81 -23 -225 -171
-544 -355 -761 -83 -99 -290 -303 -365 -361 -270 -207 -567 -336 -905 -393
-184 -31 -572 -27 -743 9 -198 41 -485 174 -662 307 -122 92 -333 296 -418
404 -227 290 -374 634 -414 974 -16 135 -8 578 12 681 3 13 8 38 10 54 11 58
46 178 65 221 11 23 20 47 20 53 0 24 124 253 172 315 139 185 559 564 752
680 154 93 452 180 686 202 41 3 77 8 78 10 6 4 354 -4 379 -10z"/>
</g>
</svg>
